<svg width="49" height="44" viewBox="0 0 49 44" fill="none" xmlns="http://www.w3.org/2000/svg">
<path d="M36.5485 41.5303H12.725" stroke="#F6BE07" stroke-width="3"/>
<path d="M24.6368 40.4117V31.7917" stroke="#F6BE07" stroke-width="3"/>
<path d="M7.43096 31.0868C7.43096 31.0868 2.13684 27.1163 2.13684 20.4986C2.13684 13.881 2.13684 9.91039 2.13684 9.91039H12.7251V17.8516" stroke="#F6BE07" stroke-width="3"/>
<path d="M41.8427 31.0868C41.8427 31.0868 47.1368 27.1163 47.1368 20.4986C47.1368 13.881 47.1368 9.91039 47.1368 9.91039H36.5486V17.8516" stroke="#F6BE07" stroke-width="3"/>
<path d="M36.5485 18.4939V13.9118C36.5485 10.267 36.5485 8.4447 35.9658 7.00268C35.1528 4.99092 33.5576 3.39567 31.5458 2.58272C30.1038 2 28.2814 2 24.6367 2C20.992 2 19.1697 2 17.7277 2.58272C15.7159 3.39567 14.1206 4.99092 13.3077 7.00268C12.725 8.4447 12.725 10.267 12.725 13.9117V18.4939C12.725 20.4611 12.725 21.4448 12.9406 22.3545C13.2411 23.6228 13.847 24.7984 14.7055 25.7791C15.3213 26.4826 16.1224 27.0534 17.7246 28.195C19.9003 29.7453 20.9882 30.5204 22.1478 30.9C23.7649 31.4294 25.5086 31.4294 27.1257 30.9C28.2853 30.5204 29.3731 29.7453 31.5489 28.195C33.1511 27.0534 33.9522 26.4826 34.568 25.7791C35.4265 24.7984 36.0324 23.6228 36.3329 22.3545C36.5485 21.4448 36.5485 20.4611 36.5485 18.4939Z" stroke="#F6BE07" stroke-width="3"/>
</svg>
