<svg width="35" height="36" viewBox="0 0 35 36" fill="none" xmlns="http://www.w3.org/2000/svg">
<path d="M27.0108 9.64443C28.4291 9.40805 29.6332 8.54441 30.3379 7.8734C32.6475 9.79141 34.2391 12.6644 34.2391 16.4923C34.2391 20.677 33.4782 22.9596 30.8152 27.5249C28.6847 31.177 23.5869 33.6118 21.3043 34.3727C21.9384 33.9923 23.663 32.0901 25.4891 27.5249C27.3152 22.9596 24.7282 19.5357 23.2065 18.3944C20.9239 17.1263 16.4347 14.1336 16.7391 12.3075C17.1195 10.0249 17.8804 9.64443 19.7826 9.64443C21.6847 9.64443 24.7282 10.0249 27.0108 9.64443Z" fill="white"/>
<path d="M9.13049 13.4489L1.14136 15.3511C1.14136 22.1989 2.28266 23.3402 3.8044 26.7641C5.32614 30.1881 10.6522 33.612 12.9348 33.612C15.2174 33.612 15.5979 33.9924 15.9783 30.9489C16.3587 27.9054 16.7392 26.7641 12.9348 25.2424C9.89136 24.025 10.145 21.6917 10.6522 20.6772C10.779 19.6627 10.9566 17.1772 10.6522 15.3511C10.3479 13.525 9.51092 13.3221 9.13049 13.4489Z" fill="white"/>
<circle cx="17.5" cy="17.6338" r="16.5" stroke="white" stroke-width="2"/>
</svg>
