<svg width="35" height="36" viewBox="0 0 35 36" fill="none" xmlns="http://www.w3.org/2000/svg">
<path d="M27.0108 10.0106C28.4291 9.77426 29.6332 8.91062 30.3379 8.23961C32.6475 10.1576 34.2391 13.0306 34.2391 16.8585C34.2391 21.0432 33.4782 23.3259 30.8152 27.8911C28.6847 31.5432 23.5869 33.978 21.3043 34.7389C21.9384 34.3585 23.663 32.4563 25.4891 27.8911C27.3152 23.3259 24.7282 19.9019 23.2065 18.7606C20.9239 17.4925 16.4347 14.4998 16.7391 12.6737C17.1195 10.3911 17.8804 10.0106 19.7826 10.0106C21.6847 10.0106 24.7282 10.3911 27.0108 10.0106Z" fill="#F6BE07"/>
<path d="M30.8152 7.72803C30.3079 8.36209 28.8369 9.70629 27.0108 10.0106C24.7282 10.3911 21.6847 10.0106 19.7826 10.0106C17.8804 10.0106 17.1195 10.3911 16.7391 12.6737C16.4347 14.4998 20.9239 17.4925 23.2065 18.7606C24.7282 19.9019 27.3152 23.3259 25.4891 27.8911C23.663 32.4563 21.9384 34.3585 21.3043 34.7389C23.5869 33.978 28.6847 31.5432 30.8152 27.8911C33.4782 23.3259 34.2391 21.0432 34.2391 16.8585C34.2391 12.6737 32.3369 9.6302 29.6739 7.72803" stroke="#F6BE07"/>
<path d="M9.13049 13.8151L1.14136 15.7173C1.14136 22.5651 2.28266 23.7064 3.8044 27.1304C5.32614 30.5543 10.6522 33.9782 12.9348 33.9782C15.2174 33.9782 15.5979 34.3586 15.9783 31.3151C16.3587 28.2717 16.7392 27.1304 12.9348 25.6086C9.89136 24.3912 10.145 22.0579 10.6522 21.0434C10.779 20.0289 10.9566 17.5434 10.6522 15.7173C10.3479 13.8912 9.51092 13.6883 9.13049 13.8151Z" fill="#F6BE07" stroke="#F6BE07"/>
<circle cx="17.5" cy="18" r="16.5" stroke="#F6BE07" stroke-width="2"/>
</svg>
