<svg width="31" height="36" viewBox="0 0 31 36" fill="none" xmlns="http://www.w3.org/2000/svg">
<path fill-rule="evenodd" clip-rule="evenodd" d="M15.7571 35.0418C18.176 33.8505 30.7118 27.1164 30.7118 15.4897C30.7118 7.00885 23.8367 0.133789 15.3559 0.133789C6.87506 0.133789 0 7.00885 0 15.4897C0 27.1164 12.5358 33.8506 14.9547 35.0418C15.2102 35.1676 15.5016 35.1676 15.7571 35.0418ZM15.3558 22.0701C18.9904 22.0701 21.9368 19.1237 21.9368 15.4891C21.9368 11.8544 18.9904 8.90796 15.3558 8.90796C11.7211 8.90796 8.77466 11.8544 8.77466 15.4891C8.77466 19.1237 11.7211 22.0701 15.3558 22.0701Z" fill="white"/>
</svg>
