<svg width="31" height="36" viewBox="0 0 31 36" fill="none" xmlns="http://www.w3.org/2000/svg">
<mask id="path-1-inside-1_1064_1764" fill="white">
<path fill-rule="evenodd" clip-rule="evenodd" d="M15.7571 35.408C18.176 34.2168 30.7118 27.4826 30.7118 15.8559C30.7118 7.37506 23.8367 0.5 15.3559 0.5C6.87506 0.5 0 7.37506 0 15.8559C0 27.4826 12.5358 34.2168 14.9547 35.408C15.2102 35.5338 15.5016 35.5338 15.7571 35.408ZM15.3558 22.4364C18.9904 22.4364 21.9368 19.4899 21.9368 15.8553C21.9368 12.2206 18.9904 9.27417 15.3558 9.27417C11.7211 9.27417 8.77466 12.2206 8.77466 15.8553C8.77466 19.4899 11.7211 22.4364 15.3558 22.4364Z"/>
</mask>
<path fill-rule="evenodd" clip-rule="evenodd" d="M15.7571 35.408C18.176 34.2168 30.7118 27.4826 30.7118 15.8559C30.7118 7.37506 23.8367 0.5 15.3559 0.5C6.87506 0.5 0 7.37506 0 15.8559C0 27.4826 12.5358 34.2168 14.9547 35.408C15.2102 35.5338 15.5016 35.5338 15.7571 35.408ZM15.3558 22.4364C18.9904 22.4364 21.9368 19.4899 21.9368 15.8553C21.9368 12.2206 18.9904 9.27417 15.3558 9.27417C11.7211 9.27417 8.77466 12.2206 8.77466 15.8553C8.77466 19.4899 11.7211 22.4364 15.3558 22.4364Z" fill="#F6BE07"/>
<path d="M15.7571 35.408L15.3153 34.5108H15.3153L15.7571 35.408ZM14.9547 35.408L15.3964 34.5108H15.3964L14.9547 35.408ZM29.7118 15.8559C29.7118 21.2864 26.7862 25.6328 23.4504 28.8225C20.1189 32.0081 16.4819 33.9363 15.3153 34.5108L16.1989 36.3051C17.4512 35.6884 21.2916 33.6539 24.8326 30.268C28.3695 26.8861 31.7118 22.0521 31.7118 15.8559H29.7118ZM15.3559 1.5C23.2844 1.5 29.7118 7.92735 29.7118 15.8559H31.7118C31.7118 6.82278 24.389 -0.5 15.3559 -0.5V1.5ZM1 15.8559C1 7.92735 7.42735 1.5 15.3559 1.5V-0.5C6.32278 -0.5 -1 6.82278 -1 15.8559H1ZM15.3964 34.5108C14.2298 33.9363 10.5929 32.0081 7.26134 28.8225C3.92558 25.6328 1 21.2864 1 15.8559H-1C-1 22.0521 2.3423 26.8861 5.87914 30.268C9.42016 33.6539 13.2606 35.6884 14.5129 36.3051L15.3964 34.5108ZM15.3153 34.5108C15.3238 34.5067 15.338 34.5023 15.3559 34.5023C15.3737 34.5023 15.388 34.5067 15.3964 34.5108L14.5129 36.3051C15.047 36.5681 15.6648 36.5681 16.1989 36.3051L15.3153 34.5108ZM20.9368 15.8553C20.9368 18.9376 18.4381 21.4364 15.3558 21.4364V23.4364C19.5427 23.4364 22.9368 20.0422 22.9368 15.8553H20.9368ZM15.3558 10.2742C18.4381 10.2742 20.9368 12.7729 20.9368 15.8553H22.9368C22.9368 11.6683 19.5427 8.27417 15.3558 8.27417V10.2742ZM9.77466 15.8553C9.77466 12.7729 12.2734 10.2742 15.3558 10.2742V8.27417C11.1688 8.27417 7.77466 11.6683 7.77466 15.8553H9.77466ZM15.3558 21.4364C12.2734 21.4364 9.77466 18.9376 9.77466 15.8553H7.77466C7.77466 20.0422 11.1688 23.4364 15.3558 23.4364V21.4364Z" fill="#F6BE07" mask="url(#path-1-inside-1_1064_1764)"/>
</svg>
