<svg width="35" height="36" viewBox="0 0 35 36" fill="none" xmlns="http://www.w3.org/2000/svg">
<path d="M34.4 15.4463C34.4 21.0555 30.8965 25.5245 26.9728 28.7652C23.06 31.9971 18.8335 33.9185 17.6179 34.4358C17.5362 34.4705 17.4638 34.4705 17.3821 34.4358C16.1665 33.9185 11.94 31.9971 8.02717 28.7652C4.10349 25.5245 0.6 21.0555 0.6 15.4463C0.6 7.39355 8.08862 0.733789 17.5 0.733789C26.9114 0.733789 34.4 7.39355 34.4 15.4463Z" stroke="#F6BE07" stroke-width="1.2"/>
<path d="M24.3999 15.4456C24.3999 18.6658 21.3884 21.4081 17.4999 21.4081C13.6114 21.4081 10.5999 18.6658 10.5999 15.4456C10.5999 12.2253 13.6114 9.48306 17.4999 9.48306C21.3884 9.48306 24.3999 12.2253 24.3999 15.4456Z" stroke="#F6BE07" stroke-width="1.2"/>
</svg>
