<svg width="35" height="36" viewBox="0 0 35 36" fill="none" xmlns="http://www.w3.org/2000/svg">
<path d="M34.4 15.9917C34.4 21.6009 30.8965 26.0699 26.9728 29.3107C23.06 32.5425 18.8335 34.4639 17.6179 34.9812C17.5362 35.0159 17.4638 35.0159 17.3821 34.9812C16.1665 34.4639 11.94 32.5425 8.02717 29.3107C4.10349 26.0699 0.6 21.6009 0.6 15.9917C0.6 7.93896 8.08862 1.2792 17.5 1.2792C26.9114 1.2792 34.4 7.93896 34.4 15.9917Z" fill="#F6BE07" stroke="#F6BE07" stroke-width="1.2"/>
<path d="M24.4 15.991C24.4 19.2112 21.3885 21.9535 17.5 21.9535C13.6115 21.9535 10.6 19.2112 10.6 15.991C10.6 12.7707 13.6115 10.0285 17.5 10.0285C21.3885 10.0285 24.4 12.7707 24.4 15.991Z" fill="white" stroke="#F6BE07" stroke-width="1.2"/>
</svg>
