<svg width="77" height="80" viewBox="0 0 77 80" fill="none" xmlns="http://www.w3.org/2000/svg">
<path d="M59.6283 67.2124L64.938 72.9646H71.1327V79.1593H28.2123V72.9646H43.6991L47.2389 67.2124M59.6283 67.2124H47.2389M59.6283 67.2124V57.9203M47.2389 67.2124V57.9203M47.2389 67.2124L59.6283 57.9203M59.6283 21.1947H47.2389M59.6283 21.1947L75.9999 16.7699V15H72.4601M59.6283 21.1947L47.2389 29.1593M59.6283 21.1947V29.1593M47.2389 21.1947V29.1593M47.2389 21.1947L16.7079 18.7096M9.18579 15V18.0973L16.7079 18.7096M9.18579 15H50.7787M9.18579 15L52.6608 1.22573M47.2389 29.1593V38.8938M47.2389 29.1593H59.6283M59.6283 29.1593L47.2389 38.8938M59.6283 29.1593V38.8938M47.2389 38.8938V48.6283M47.2389 38.8938H59.6283M59.6283 38.8938L47.2389 48.6283M59.6283 38.8938V48.6283M47.2389 48.6283V57.9203M47.2389 48.6283H59.6283M59.6283 48.6283L47.2389 57.9203M59.6283 48.6283V57.9203M47.2389 57.9203H59.6283M72.4601 15L54.3814 1.22573M72.4601 15H57.4159M50.7787 15L52.6608 1.22573M50.7787 15H57.4159M52.6608 1.22573L53.8761 0.840698L54.3814 1.22573M54.3814 1.22573L57.4159 15M16.7079 18.7096V26.9469H19.8053M19.8053 26.9469V33.1416H17.3716M19.8053 26.9469H14.938V33.1416H17.3716M17.3716 33.1416V36.2389C18.4041 36.3864 20.9668 37.5664 19.8053 40.6637C18.407 44.3924 13.1681 41.9911 14.053 38.8938" stroke="#F6BE07" stroke-width="1.5"/>
<path d="M1 51.5044H34.1858M1 51.5044V59.0266H34.1858V51.5044M1 51.5044L16.9292 43.0974L34.1858 51.5044" stroke="#F6BE07" stroke-width="1.5"/>
<line x1="4.53979" y1="54.7367" x2="8.96457" y2="54.7367" stroke="#F6BE07" stroke-width="1.5"/>
<line x1="11.6195" y1="54.7368" x2="16.0443" y2="54.7368" stroke="#F6BE07" stroke-width="1.5"/>
<line x1="18.6991" y1="54.7368" x2="23.1239" y2="54.7368" stroke="#F6BE07" stroke-width="1.5"/>
<line x1="25.7788" y1="54.7368" x2="30.2036" y2="54.7368" stroke="#F6BE07" stroke-width="1.5"/>
</svg>
