<svg width="34" height="34" viewBox="0 0 34 34" fill="none" xmlns="http://www.w3.org/2000/svg">
<path d="M2.67962 5.6647L7.50342 0.840896C7.89394 0.450372 8.52711 0.450371 8.91763 0.840895L14.8718 6.7951C15.2624 7.18563 15.2624 7.81879 14.8718 8.20932L10.9746 12.1066C10.424 12.6572 10.2875 13.4983 10.6357 14.1947C12.6487 18.2206 15.9131 21.4851 19.9391 23.4981C20.6355 23.8463 21.4766 23.7098 22.0272 23.1592L25.9245 19.2619C26.315 18.8714 26.9482 18.8714 27.3387 19.2619L33.2929 25.2162C33.6834 25.6067 33.6834 26.2398 33.2929 26.6304L28.4691 31.4542C26.3577 33.5655 23.0152 33.8031 20.6265 32.0115L12.6812 26.0526C10.9377 24.7449 9.38885 23.1961 8.08121 21.4526L2.12226 13.5073C0.330722 11.1186 0.568267 7.77605 2.67962 5.6647Z" fill="white"/>
</svg>
