<svg width="36" height="36" viewBox="0 0 36 36" fill="none" xmlns="http://www.w3.org/2000/svg">
<path d="M3.67962 7.03091L8.50342 2.20711C8.89394 1.81658 9.52711 1.81658 9.91763 2.20711L15.8718 8.16131C16.2624 8.55184 16.2624 9.185 15.8718 9.57553L11.9746 13.4728C11.424 14.0234 11.2875 14.8645 11.6357 15.5609C13.6487 19.5869 16.9131 22.8513 20.9391 24.8643C21.6355 25.2125 22.4766 25.076 23.0272 24.5254L26.9245 20.6282C27.315 20.2376 27.9482 20.2376 28.3387 20.6282L34.2929 26.5824C34.6834 26.9729 34.6834 27.6061 34.2929 27.9966L29.4691 32.8204C27.3577 34.9317 24.0152 35.1693 21.6265 33.3777L13.6812 27.4188C11.9377 26.1111 10.3889 24.5623 9.08121 22.8188L3.12226 14.8735C1.33072 12.4848 1.56827 9.14226 3.67962 7.03091Z" fill="#F6BE07" stroke="#F6BE07" stroke-width="2"/>
</svg>
