<svg width="35" height="35" viewBox="0 0 35 35" fill="none" xmlns="http://www.w3.org/2000/svg">
<path d="M2.67962 5.14357L6.07067 1.75252C6.46119 1.36199 7.09436 1.36199 7.48488 1.75252L13.8484 8.11608C14.239 8.50661 14.239 9.13977 13.8484 9.53029L11.1763 12.2024C10.872 12.5068 10.7965 12.9718 10.989 13.3567L11.1269 13.6326C13.3525 18.0837 16.9617 21.6929 21.4128 23.9185L21.6887 24.0564C22.0737 24.2489 22.5386 24.1734 22.843 23.8691L25.5151 21.197C25.9056 20.8064 26.5388 20.8064 26.9293 21.197L33.2929 27.5605C33.6834 27.951 33.6834 28.5842 33.2929 28.9747L29.9018 32.3658C27.7905 34.4771 24.4479 34.7147 22.0592 32.9231L13.2952 26.3502C11.5517 25.0425 10.0029 23.4937 8.69524 21.7502L2.12226 12.9862C0.330722 10.5975 0.568269 7.25492 2.67962 5.14357Z" fill="#F6BE07" stroke="#F6BE07" stroke-width="1.2"/>
</svg>
