<svg width="35" height="35" viewBox="0 0 35 35" fill="none" xmlns="http://www.w3.org/2000/svg">
<path d="M2.67962 5.09816L6.07067 1.70711C6.46119 1.31658 7.09436 1.31658 7.48488 1.70711L13.8484 8.07067C14.239 8.46119 14.239 9.09436 13.8484 9.48488L11.1763 12.157C10.872 12.4614 10.7965 12.9263 10.989 13.3113L11.1269 13.5872C13.3525 18.0383 16.9617 21.6475 21.4128 23.8731L21.6887 24.011C22.0737 24.2035 22.5386 24.128 22.843 23.8237L25.5151 21.1516C25.9056 20.761 26.5388 20.761 26.9293 21.1516L33.2929 27.5151C33.6834 27.9056 33.6834 28.5388 33.2929 28.9293L29.9018 32.3204C27.7905 34.4317 24.4479 34.6693 22.0592 32.8777L13.2952 26.3048C11.5517 24.9971 10.0029 23.4483 8.69524 21.7048L2.12226 12.9408C0.330722 10.5521 0.568269 7.20951 2.67962 5.09816Z" stroke="#F6BE07" stroke-width="1.2"/>
</svg>
