<svg width="70" height="68" viewBox="0 0 70 68" fill="none" xmlns="http://www.w3.org/2000/svg">
<path d="M15.2791 46.5V27.0582L31.6868 12.8592M31.6868 12.8592V46.5M31.6868 12.8592L44.6237 17.9078V56.7184H55.9829V1.5M55.9829 1.5L68.6043 6.86407V56.7184M55.9829 1.5L43.6771 11.9126" stroke="#F6BE07" stroke-width="1.5"/>
<path d="M11.8191 66.5001H1.39575V48.0711H11.8191V49.26M11.8191 66.5001V49.26M11.8191 66.5001H22.953M11.8191 49.26L19.0443 43.4341L24.9666 33.6845L29.7045 36.5381L24.9666 46.6443M24.9666 46.6443H39.8909V51.9946H37.9957M24.9666 46.6443H23.9006V51.9946M23.9006 51.9946H37.9957M23.9006 51.9946H21.7686V56.6316H36.219M37.9957 51.9946V56.6316H36.219M36.219 56.6316H20.3472V62.2198H22.953M36.219 56.6316V62.2198H35.3899M35.3899 62.2198H22.953M35.3899 62.2198V66.5001H22.953M22.953 62.2198V66.5001" stroke="#F6BE07" stroke-width="1.5"/>
</svg>
