<svg width="83" height="82" viewBox="0 0 83 82" fill="none" xmlns="http://www.w3.org/2000/svg">
<path d="M35.4575 27.1459L39.3045 33.5577C39.496 33.8769 39.5917 34.0364 39.7333 34.0364C39.8748 34.0364 39.9706 33.8769 40.162 33.5577L44.0091 27.1459C44.4027 26.4899 44.5996 26.1619 44.7072 25.8061C44.7802 25.565 44.8225 25.3156 44.8331 25.0639C44.8489 24.6926 44.7713 24.318 44.6161 23.5689L44.6161 23.5689C43.1221 16.3576 42.3751 12.7519 41.0696 12.1024C40.228 11.6836 39.2386 11.6836 38.3969 12.1024C37.0915 12.7519 36.3445 16.3576 34.8505 23.5689C34.6953 24.318 34.6177 24.6926 34.6334 25.0639C34.6441 25.3156 34.6864 25.565 34.7594 25.8061C34.867 26.1619 35.0638 26.4899 35.4575 27.1459Z" stroke="#F6BE07" stroke-width="1.5"/>
<path d="M43.9406 34.432L40.2378 41.1021C40.0572 41.4274 39.9669 41.5901 40.0377 41.7127C40.1084 41.8353 40.2945 41.8384 40.6666 41.8447L47.7849 41.9644C48.6767 41.9794 49.1226 41.9869 49.5359 41.8739C49.8294 41.7937 50.109 41.6692 50.3652 41.5048C50.7257 41.2734 51.0186 40.9371 51.6043 40.2645L51.8517 39.9803C55.6168 35.6567 57.4993 33.4949 57.3667 32.2005C57.262 31.178 56.6412 30.2803 55.7215 29.8215C54.5571 29.2407 51.8701 30.2392 46.4959 32.2361C45.8602 32.4723 45.5424 32.5904 45.2652 32.7701C45.0386 32.9169 44.8329 33.0937 44.6537 33.2956C44.4343 33.5426 44.2697 33.8391 43.9406 34.432Z" stroke="#F6BE07" stroke-width="1.5"/>
<path d="M31.3626 41.8964L38.987 41.635C39.3589 41.6222 39.5449 41.6159 39.6135 41.4921C39.6821 41.3683 39.589 41.2072 39.4027 40.885L35.8391 34.7217C35.3927 33.9496 35.1695 33.5635 34.8598 33.2675C34.6398 33.0572 34.3891 32.8816 34.1163 32.7467C33.7322 32.5569 33.2931 32.479 32.4149 32.3234L32.0439 32.2577C26.3987 31.2572 23.5761 30.757 22.5348 31.5373C21.7123 32.1536 21.2626 33.1481 21.343 34.1728C21.4449 35.47 23.6847 37.259 28.1642 40.837C28.6941 41.2603 28.9591 41.4719 29.2558 41.617C29.4984 41.7355 29.7559 41.8208 30.0213 41.8705C30.3459 41.9313 30.6848 41.9197 31.3626 41.8964Z" stroke="#F6BE07" stroke-width="1.5"/>
<path d="M39.7321 34.4045V47.5991" stroke="#F6BE07" stroke-width="1.5"/>
<path d="M55.0831 49.0102L64.1189 41.2451H80.7079L50.3535 71.6702H24.4462L16.1164 80L1.29211 65.1757L18.7989 47.669H53.0359L56.8479 51.6221L53.0359 59.3872H31.6466" stroke="#F6BE07" stroke-width="1.5"/>
</svg>
